<?xml version="1.0" standalone="no"?>
<!DOCTYPE svg PUBLIC "-//W3C//DTD SVG 20010904//EN"
 "http://www.w3.org/TR/2001/REC-SVG-20010904/DTD/svg10.dtd">
<svg version="1.0" xmlns="http://www.w3.org/2000/svg"
 width="300.000000pt" height="300.000000pt" viewBox="0 0 300.000000 300.000000"
 preserveAspectRatio="xMidYMid meet">
<metadata>
Created by potrace 1.10, written by Peter Selinger 2001-2011
</metadata>
<g transform="translate(0.000000,300.000000) scale(0.100000,-0.100000)"
fill="#000000" stroke="none">
<path d="M1728 2030 c2 -466 -1 -548 -22 -495 -7 20 -511 689 -528 702 -7 5
-98 26 -203 47 -104 20 -198 39 -207 42 -17 5 -18 -33 -18 -699 l0 -704 53
-48 c28 -26 131 -126 228 -222 l177 -175 -5 513 c-4 348 -2 511 5 504 5 -5 43
-55 84 -110 72 -97 460 -628 463 -632 2 -3 401 -83 415 -83 7 0 10 224 10 713
l0 713 -224 222 c-123 122 -225 222 -227 222 -2 0 -3 -229 -1 -510z m77 380
c18 -20 18 -21 -2 -43 -12 -12 -23 -33 -26 -47 -2 -14 -5 5 -6 43 -1 71 5 79
34 47z m168 -197 l147 -148 0 -247 c0 -228 -7 -291 -24 -222 -10 37 -210 582
-250 682 -19 45 -31 82 -27 82 4 0 73 -66 154 -147z m-143 -83 c12 -63 55
-276 96 -473 42 -198 73 -361 71 -363 -3 -3 -50 21 -106 52 l-101 57 1 441 c0
245 4 432 9 421 4 -11 18 -72 30 -135z m57 -18 c28 -81 92 -257 142 -390 l91
-244 0 -362 c0 -200 -2 -365 -5 -368 -5 -5 -296 50 -303 57 -7 7 201 412 218
424 23 16 26 38 6 60 -8 9 -26 72 -40 141 -14 69 -39 190 -56 270 -17 80 -44
208 -60 285 -34 166 -49 234 -56 258 -3 9 -2 17 3 17 4 0 31 -67 60 -148z
m-937 113 c68 -14 134 -25 147 -25 15 0 23 -5 21 -13 -10 -39 -193 -347 -209
-352 -22 -7 -25 -32 -5 -54 7 -9 25 -79 40 -156 15 -77 59 -294 97 -483 39
-189 69 -347 67 -352 -2 -5 -67 177 -145 404 l-143 413 0 322 c0 176 2 321 4
321 2 0 58 -11 126 -25z m218 -340 c5 -38 6 -75 1 -80 -5 -7 -40 -8 -106 -3
-127 11 -129 12 -110 42 9 13 53 91 99 172 l83 149 12 -105 c7 -58 16 -136 21
-175z m296 -122 c188 -251 293 -383 304 -383 27 0 218 -108 201 -114 -11 -5
-131 -31 -165 -37 -30 -5 -63 27 -141 132 -79 108 -101 141 -123 189 -4 8 -18
17 -31 20 -38 8 -282 195 -297 227 -10 22 -52 308 -52 358 0 14 -6 21 304
-392z m-302 -2 c30 -14 51 -39 115 -141 44 -69 102 -160 131 -202 29 -42 52
-86 52 -97 0 -11 9 -26 21 -34 11 -8 48 -62 81 -118 120 -209 113 -209 -36 -2
-217 302 -334 457 -349 462 -22 8 -205 144 -206 153 -2 13 153 -4 191 -21z
m-23 -559 c1 -280 -2 -421 -9 -417 -5 3 -10 22 -10 40 0 19 -40 236 -90 483
-49 247 -90 454 -90 461 0 6 45 -24 99 -67 l100 -77 0 -423z m248 420 c113
-83 122 -99 109 -198 -5 -41 -12 -74 -15 -74 -3 0 -18 19 -32 43 -15 23 -66
103 -114 177 -103 158 -110 173 -69 142 16 -12 70 -53 121 -90z m-478 -340
c46 -136 113 -326 148 -422 71 -190 80 -221 67 -219 -5 1 -75 70 -156 153
l-147 151 -3 293 c-2 160 -1 292 2 292 3 0 43 -112 89 -248z m725 85 c48 -66
86 -121 83 -123 -7 -8 -181 68 -194 84 -12 16 -10 121 3 161 6 18 1 23 108
-122z m-4 -117 c54 -23 101 -49 108 -61 8 -12 19 -89 27 -178 11 -141 12 -173
2 -160 -10 12 -247 429 -247 433 0 11 15 6 110 -34z m360 -14 c0 -8 -38 -90
-84 -183 -46 -92 -86 -178 -90 -191 -13 -40 -22 -15 -25 65 -1 43 -6 116 -10
163 -9 93 1 119 43 121 12 1 50 9 86 19 84 23 80 22 80 6z"/>
</g>
</svg>
